<?xml version="1.0" encoding="UTF-8" standalone="no"?>
<!DOCTYPE svg PUBLIC "-//W3C//DTD SVG 1.1//EN"
 "http://www.w3.org/Graphics/SVG/1.1/DTD/svg11.dtd">
<!-- Generated by graphviz version 2.42.4 (0)
 -->
<!-- Pages: 1 -->
<svg width="2664pt" height="692pt"
 viewBox="0.00 0.00 2663.77 692.00" xmlns="http://www.w3.org/2000/svg" xmlns:xlink="http://www.w3.org/1999/xlink">
<g id="graph0" class="graph" transform="scale(1 1) rotate(0) translate(4 688)">
<polygon fill="white" stroke="transparent" points="-4,4 -4,-688 2659.77,-688 2659.77,4 -4,4"/>
<!-- [root] data.google_project.main_project -->
<g id="node1" class="node">
<title>[root] data.google_project.main_project</title>
<polygon fill="none" stroke="black" points="1217,-396 1017,-396 1017,-360 1217,-360 1217,-396"/>
<text text-anchor="middle" x="1117" y="-374.3" font-family="Times,serif" font-size="14.00">data.google_project.main_project</text>
</g>
<!-- [root] data.google_project.main_project (expand) -->
<g id="node2" class="node">
<title>[root] data.google_project.main_project (expand)</title>
<polygon fill="none" stroke="black" points="1221,-324 1021,-324 1021,-288 1221,-288 1221,-324"/>
<text text-anchor="middle" x="1121" y="-302.3" font-family="Times,serif" font-size="14.00">data.google_project.main_project</text>
</g>
<!-- [root] data.google_project.main_project&#45;&gt;[root] data.google_project.main_project (expand) -->
<g id="edge2" class="edge">
<title>[root] data.google_project.main_project&#45;&gt;[root] data.google_project.main_project (expand)</title>
<path fill="none" stroke="black" d="M1117.99,-359.7C1118.43,-351.98 1118.96,-342.71 1119.45,-334.11"/>
<polygon fill="black" stroke="black" points="1122.95,-334.29 1120.02,-324.1 1115.96,-333.89 1122.95,-334.29"/>
</g>
<!-- [root] google_project_service.serviceusage_api -->
<g id="node21" class="node">
<title>[root] google_project_service.serviceusage_api</title>
<polygon fill="none" stroke="black" points="1244.5,-252 1005.5,-252 1005.5,-216 1244.5,-216 1244.5,-252"/>
<text text-anchor="middle" x="1125" y="-230.3" font-family="Times,serif" font-size="14.00">google_project_service.serviceusage_api</text>
</g>
<!-- [root] data.google_project.main_project (expand)&#45;&gt;[root] google_project_service.serviceusage_api -->
<g id="edge1" class="edge">
<title>[root] data.google_project.main_project (expand)&#45;&gt;[root] google_project_service.serviceusage_api</title>
<path fill="none" stroke="black" d="M1121.99,-287.7C1122.43,-279.98 1122.96,-270.71 1123.45,-262.11"/>
<polygon fill="black" stroke="black" points="1126.95,-262.29 1124.02,-252.1 1119.96,-261.89 1126.95,-262.29"/>
</g>
<!-- [root] google_bigquery_dataset.dataset -->
<g id="node3" class="node">
<title>[root] google_bigquery_dataset.dataset</title>
<polygon fill="none" stroke="black" points="310,-252 116,-252 116,-216 310,-216 310,-252"/>
<text text-anchor="middle" x="213" y="-230.3" font-family="Times,serif" font-size="14.00">google_bigquery_dataset.dataset</text>
</g>
<!-- [root] google_bigquery_dataset.dataset (expand) -->
<g id="node4" class="node">
<title>[root] google_bigquery_dataset.dataset (expand)</title>
<polygon fill="none" stroke="black" points="310,-180 116,-180 116,-144 310,-144 310,-180"/>
<text text-anchor="middle" x="213" y="-158.3" font-family="Times,serif" font-size="14.00">google_bigquery_dataset.dataset</text>
</g>
<!-- [root] google_bigquery_dataset.dataset&#45;&gt;[root] google_bigquery_dataset.dataset (expand) -->
<g id="edge5" class="edge">
<title>[root] google_bigquery_dataset.dataset&#45;&gt;[root] google_bigquery_dataset.dataset (expand)</title>
<path fill="none" stroke="black" d="M213,-215.7C213,-207.98 213,-198.71 213,-190.11"/>
<polygon fill="black" stroke="black" points="216.5,-190.1 213,-180.1 209.5,-190.1 216.5,-190.1"/>
</g>
<!-- [root] provider[&quot;registry.terraform.io/hashicorp/google&quot;] -->
<g id="node33" class="node">
<title>[root] provider[&quot;registry.terraform.io/hashicorp/google&quot;]</title>
<polygon fill="none" stroke="black" points="865,-108 598.39,-90 865,-72 1131.61,-90 865,-108"/>
<text text-anchor="middle" x="865" y="-86.3" font-family="Times,serif" font-size="14.00">provider[&quot;registry.terraform.io/hashicorp/google&quot;]</text>
</g>
<!-- [root] google_bigquery_dataset.dataset (expand)&#45;&gt;[root] provider[&quot;registry.terraform.io/hashicorp/google&quot;] -->
<g id="edge3" class="edge">
<title>[root] google_bigquery_dataset.dataset (expand)&#45;&gt;[root] provider[&quot;registry.terraform.io/hashicorp/google&quot;]</title>
<path fill="none" stroke="black" d="M310.01,-145.19C313.04,-144.78 316.04,-144.38 319,-144 462.35,-125.57 627.63,-110.36 738.45,-101.04"/>
<polygon fill="black" stroke="black" points="738.99,-104.5 748.67,-100.18 738.41,-97.53 738.99,-104.5"/>
</g>
<!-- [root] var.dataset_id -->
<g id="node36" class="node">
<title>[root] var.dataset_id</title>
<polygon fill="none" stroke="black" points="253,-108 167,-108 167,-72 259,-72 259,-102 253,-108"/>
<polyline fill="none" stroke="black" points="253,-108 253,-102 "/>
<polyline fill="none" stroke="black" points="259,-102 253,-102 "/>
<text text-anchor="middle" x="213" y="-86.3" font-family="Times,serif" font-size="14.00">var.dataset_id</text>
</g>
<!-- [root] google_bigquery_dataset.dataset (expand)&#45;&gt;[root] var.dataset_id -->
<g id="edge4" class="edge">
<title>[root] google_bigquery_dataset.dataset (expand)&#45;&gt;[root] var.dataset_id</title>
<path fill="none" stroke="black" d="M213,-143.7C213,-135.98 213,-126.71 213,-118.11"/>
<polygon fill="black" stroke="black" points="216.5,-118.1 213,-108.1 209.5,-118.1 216.5,-118.1"/>
</g>
<!-- [root] google_bigquery_job.seed_catalog -->
<g id="node5" class="node">
<title>[root] google_bigquery_job.seed_catalog</title>
<polygon fill="none" stroke="black" points="208,-540 2,-540 2,-504 208,-504 208,-540"/>
<text text-anchor="middle" x="105" y="-518.3" font-family="Times,serif" font-size="14.00">google_bigquery_job.seed_catalog</text>
</g>
<!-- [root] google_bigquery_job.seed_catalog (expand) -->
<g id="node6" class="node">
<title>[root] google_bigquery_job.seed_catalog (expand)</title>
<polygon fill="none" stroke="black" points="206,-468 0,-468 0,-432 206,-432 206,-468"/>
<text text-anchor="middle" x="103" y="-446.3" font-family="Times,serif" font-size="14.00">google_bigquery_job.seed_catalog</text>
</g>
<!-- [root] google_bigquery_job.seed_catalog&#45;&gt;[root] google_bigquery_job.seed_catalog (expand) -->
<g id="edge7" class="edge">
<title>[root] google_bigquery_job.seed_catalog&#45;&gt;[root] google_bigquery_job.seed_catalog (expand)</title>
<path fill="none" stroke="black" d="M104.51,-503.7C104.29,-495.98 104.02,-486.71 103.77,-478.11"/>
<polygon fill="black" stroke="black" points="107.27,-478 103.49,-468.1 100.28,-478.2 107.27,-478"/>
</g>
<!-- [root] google_bigquery_table.catalog -->
<g id="node9" class="node">
<title>[root] google_bigquery_table.catalog</title>
<polygon fill="none" stroke="black" points="187,-396 3,-396 3,-360 187,-360 187,-396"/>
<text text-anchor="middle" x="95" y="-374.3" font-family="Times,serif" font-size="14.00">google_bigquery_table.catalog</text>
</g>
<!-- [root] google_bigquery_job.seed_catalog (expand)&#45;&gt;[root] google_bigquery_table.catalog -->
<g id="edge6" class="edge">
<title>[root] google_bigquery_job.seed_catalog (expand)&#45;&gt;[root] google_bigquery_table.catalog</title>
<path fill="none" stroke="black" d="M101.02,-431.7C100.14,-423.98 99.08,-414.71 98.1,-406.11"/>
<polygon fill="black" stroke="black" points="101.57,-405.64 96.95,-396.1 94.61,-406.44 101.57,-405.64"/>
</g>
<!-- [root] google_bigquery_job.seed_inventory -->
<g id="node7" class="node">
<title>[root] google_bigquery_job.seed_inventory</title>
<polygon fill="none" stroke="black" points="448,-540 230,-540 230,-504 448,-504 448,-540"/>
<text text-anchor="middle" x="339" y="-518.3" font-family="Times,serif" font-size="14.00">google_bigquery_job.seed_inventory</text>
</g>
<!-- [root] google_bigquery_job.seed_inventory (expand) -->
<g id="node8" class="node">
<title>[root] google_bigquery_job.seed_inventory (expand)</title>
<polygon fill="none" stroke="black" points="445,-468 227,-468 227,-432 445,-432 445,-468"/>
<text text-anchor="middle" x="336" y="-446.3" font-family="Times,serif" font-size="14.00">google_bigquery_job.seed_inventory</text>
</g>
<!-- [root] google_bigquery_job.seed_inventory&#45;&gt;[root] google_bigquery_job.seed_inventory (expand) -->
<g id="edge9" class="edge">
<title>[root] google_bigquery_job.seed_inventory&#45;&gt;[root] google_bigquery_job.seed_inventory (expand)</title>
<path fill="none" stroke="black" d="M338.26,-503.7C337.93,-495.98 337.53,-486.71 337.16,-478.11"/>
<polygon fill="black" stroke="black" points="340.66,-477.95 336.73,-468.1 333.66,-478.25 340.66,-477.95"/>
</g>
<!-- [root] google_bigquery_table.inventory -->
<g id="node11" class="node">
<title>[root] google_bigquery_table.inventory</title>
<polygon fill="none" stroke="black" points="402.5,-396 205.5,-396 205.5,-360 402.5,-360 402.5,-396"/>
<text text-anchor="middle" x="304" y="-374.3" font-family="Times,serif" font-size="14.00">google_bigquery_table.inventory</text>
</g>
<!-- [root] google_bigquery_job.seed_inventory (expand)&#45;&gt;[root] google_bigquery_table.inventory -->
<g id="edge8" class="edge">
<title>[root] google_bigquery_job.seed_inventory (expand)&#45;&gt;[root] google_bigquery_table.inventory</title>
<path fill="none" stroke="black" d="M328.09,-431.7C324.45,-423.73 320.05,-414.1 316.01,-405.26"/>
<polygon fill="black" stroke="black" points="319.16,-403.74 311.82,-396.1 312.79,-406.65 319.16,-403.74"/>
</g>
<!-- [root] google_bigquery_table.catalog (expand) -->
<g id="node10" class="node">
<title>[root] google_bigquery_table.catalog (expand)</title>
<polygon fill="none" stroke="black" points="187,-324 3,-324 3,-288 187,-288 187,-324"/>
<text text-anchor="middle" x="95" y="-302.3" font-family="Times,serif" font-size="14.00">google_bigquery_table.catalog</text>
</g>
<!-- [root] google_bigquery_table.catalog&#45;&gt;[root] google_bigquery_table.catalog (expand) -->
<g id="edge11" class="edge">
<title>[root] google_bigquery_table.catalog&#45;&gt;[root] google_bigquery_table.catalog (expand)</title>
<path fill="none" stroke="black" d="M95,-359.7C95,-351.98 95,-342.71 95,-334.11"/>
<polygon fill="black" stroke="black" points="98.5,-334.1 95,-324.1 91.5,-334.1 98.5,-334.1"/>
</g>
<!-- [root] google_bigquery_table.catalog (expand)&#45;&gt;[root] google_bigquery_dataset.dataset -->
<g id="edge10" class="edge">
<title>[root] google_bigquery_table.catalog (expand)&#45;&gt;[root] google_bigquery_dataset.dataset</title>
<path fill="none" stroke="black" d="M123.87,-287.88C139.29,-278.72 158.48,-267.34 175.1,-257.48"/>
<polygon fill="black" stroke="black" points="177.21,-260.3 184.02,-252.19 173.64,-254.28 177.21,-260.3"/>
</g>
<!-- [root] google_bigquery_table.inventory (expand) -->
<g id="node12" class="node">
<title>[root] google_bigquery_table.inventory (expand)</title>
<polygon fill="none" stroke="black" points="402.5,-324 205.5,-324 205.5,-288 402.5,-288 402.5,-324"/>
<text text-anchor="middle" x="304" y="-302.3" font-family="Times,serif" font-size="14.00">google_bigquery_table.inventory</text>
</g>
<!-- [root] google_bigquery_table.inventory&#45;&gt;[root] google_bigquery_table.inventory (expand) -->
<g id="edge13" class="edge">
<title>[root] google_bigquery_table.inventory&#45;&gt;[root] google_bigquery_table.inventory (expand)</title>
<path fill="none" stroke="black" d="M304,-359.7C304,-351.98 304,-342.71 304,-334.11"/>
<polygon fill="black" stroke="black" points="307.5,-334.1 304,-324.1 300.5,-334.1 307.5,-334.1"/>
</g>
<!-- [root] google_bigquery_table.inventory (expand)&#45;&gt;[root] google_bigquery_dataset.dataset -->
<g id="edge12" class="edge">
<title>[root] google_bigquery_table.inventory (expand)&#45;&gt;[root] google_bigquery_dataset.dataset</title>
<path fill="none" stroke="black" d="M281.51,-287.7C270.04,-278.88 255.94,-268.03 243.52,-258.47"/>
<polygon fill="black" stroke="black" points="245.3,-255.43 235.24,-252.1 241.03,-260.98 245.3,-255.43"/>
</g>
<!-- [root] google_project_service.aiplatform_api -->
<g id="node13" class="node">
<title>[root] google_project_service.aiplatform_api</title>
<polygon fill="none" stroke="black" points="647.5,-396 420.5,-396 420.5,-360 647.5,-360 647.5,-396"/>
<text text-anchor="middle" x="534" y="-374.3" font-family="Times,serif" font-size="14.00">google_project_service.aiplatform_api</text>
</g>
<!-- [root] google_project_service.aiplatform_api (expand) -->
<g id="node14" class="node">
<title>[root] google_project_service.aiplatform_api (expand)</title>
<polygon fill="none" stroke="black" points="555.5,-180 328.5,-180 328.5,-144 555.5,-144 555.5,-180"/>
<text text-anchor="middle" x="442" y="-158.3" font-family="Times,serif" font-size="14.00">google_project_service.aiplatform_api</text>
</g>
<!-- [root] google_project_service.aiplatform_api&#45;&gt;[root] google_project_service.aiplatform_api (expand) -->
<g id="edge15" class="edge">
<title>[root] google_project_service.aiplatform_api&#45;&gt;[root] google_project_service.aiplatform_api (expand)</title>
<path fill="none" stroke="black" d="M526.63,-359.85C510.61,-322.6 472.55,-234.07 453.41,-189.54"/>
<polygon fill="black" stroke="black" points="456.57,-188.04 449.41,-180.23 450.14,-190.8 456.57,-188.04"/>
</g>
<!-- [root] google_project_service.aiplatform_api (expand)&#45;&gt;[root] provider[&quot;registry.terraform.io/hashicorp/google&quot;] -->
<g id="edge14" class="edge">
<title>[root] google_project_service.aiplatform_api (expand)&#45;&gt;[root] provider[&quot;registry.terraform.io/hashicorp/google&quot;]</title>
<path fill="none" stroke="black" d="M544.94,-143.97C617.63,-131.94 713.79,-116.02 781.67,-104.79"/>
<polygon fill="black" stroke="black" points="782.6,-108.18 791.9,-103.1 781.46,-101.28 782.6,-108.18"/>
</g>
<!-- [root] google_project_service.bigquery_api -->
<g id="node15" class="node">
<title>[root] google_project_service.bigquery_api</title>
<polygon fill="none" stroke="black" points="686,-540 468,-540 468,-504 686,-504 686,-540"/>
<text text-anchor="middle" x="577" y="-518.3" font-family="Times,serif" font-size="14.00">google_project_service.bigquery_api</text>
</g>
<!-- [root] google_project_service.bigquery_api (expand) -->
<g id="node16" class="node">
<title>[root] google_project_service.bigquery_api (expand)</title>
<polygon fill="none" stroke="black" points="792,-180 574,-180 574,-144 792,-144 792,-180"/>
<text text-anchor="middle" x="683" y="-158.3" font-family="Times,serif" font-size="14.00">google_project_service.bigquery_api</text>
</g>
<!-- [root] google_project_service.bigquery_api&#45;&gt;[root] google_project_service.bigquery_api (expand) -->
<g id="edge17" class="edge">
<title>[root] google_project_service.bigquery_api&#45;&gt;[root] google_project_service.bigquery_api (expand)</title>
<path fill="none" stroke="black" d="M599.46,-503.97C628.67,-479.71 676,-432.19 676,-379 676,-379 676,-379 676,-305 676,-264.95 678.81,-218.62 680.87,-190.06"/>
<polygon fill="black" stroke="black" points="684.37,-190.27 681.62,-180.04 677.39,-189.75 684.37,-190.27"/>
</g>
<!-- [root] google_project_service.bigquery_api (expand)&#45;&gt;[root] provider[&quot;registry.terraform.io/hashicorp/google&quot;] -->
<g id="edge16" class="edge">
<title>[root] google_project_service.bigquery_api (expand)&#45;&gt;[root] provider[&quot;registry.terraform.io/hashicorp/google&quot;]</title>
<path fill="none" stroke="black" d="M727.52,-143.88C754.92,-133.34 789.99,-119.85 817.86,-109.13"/>
<polygon fill="black" stroke="black" points="819.31,-112.32 827.39,-105.47 816.8,-105.79 819.31,-112.32"/>
</g>
<!-- [root] google_project_service.drive_api -->
<g id="node17" class="node">
<title>[root] google_project_service.drive_api</title>
<polygon fill="none" stroke="black" points="901.5,-540 704.5,-540 704.5,-504 901.5,-504 901.5,-540"/>
<text text-anchor="middle" x="803" y="-518.3" font-family="Times,serif" font-size="14.00">google_project_service.drive_api</text>
</g>
<!-- [root] google_project_service.drive_api (expand) -->
<g id="node18" class="node">
<title>[root] google_project_service.drive_api (expand)</title>
<polygon fill="none" stroke="black" points="901.5,-468 704.5,-468 704.5,-432 901.5,-432 901.5,-468"/>
<text text-anchor="middle" x="803" y="-446.3" font-family="Times,serif" font-size="14.00">google_project_service.drive_api</text>
</g>
<!-- [root] google_project_service.drive_api&#45;&gt;[root] google_project_service.drive_api (expand) -->
<g id="edge19" class="edge">
<title>[root] google_project_service.drive_api&#45;&gt;[root] google_project_service.drive_api (expand)</title>
<path fill="none" stroke="black" d="M803,-503.7C803,-495.98 803,-486.71 803,-478.11"/>
<polygon fill="black" stroke="black" points="806.5,-478.1 803,-468.1 799.5,-478.1 806.5,-478.1"/>
</g>
<!-- [root] google_project_service.drive_api (expand)&#45;&gt;[root] provider[&quot;registry.terraform.io/hashicorp/google&quot;] -->
<g id="edge18" class="edge">
<title>[root] google_project_service.drive_api (expand)&#45;&gt;[root] provider[&quot;registry.terraform.io/hashicorp/google&quot;]</title>
<path fill="none" stroke="black" d="M775.51,-431.99C763.35,-422.91 750.19,-410.58 743,-396 707.55,-324.14 691.67,-284.64 733,-216 750.64,-186.7 775.23,-202.47 801,-180 821.83,-161.83 839.63,-135.63 851.12,-116.36"/>
<polygon fill="black" stroke="black" points="854.26,-117.93 856.25,-107.53 848.2,-114.42 854.26,-117.93"/>
</g>
<!-- [root] google_project_service.iam_manager_api -->
<g id="node19" class="node">
<title>[root] google_project_service.iam_manager_api</title>
<polygon fill="none" stroke="black" points="997.5,-396 752.5,-396 752.5,-360 997.5,-360 997.5,-396"/>
<text text-anchor="middle" x="875" y="-374.3" font-family="Times,serif" font-size="14.00">google_project_service.iam_manager_api</text>
</g>
<!-- [root] google_project_service.iam_manager_api (expand) -->
<g id="node20" class="node">
<title>[root] google_project_service.iam_manager_api (expand)</title>
<polygon fill="none" stroke="black" points="987.5,-252 742.5,-252 742.5,-216 987.5,-216 987.5,-252"/>
<text text-anchor="middle" x="865" y="-230.3" font-family="Times,serif" font-size="14.00">google_project_service.iam_manager_api</text>
</g>
<!-- [root] google_project_service.iam_manager_api&#45;&gt;[root] google_project_service.iam_manager_api (expand) -->
<g id="edge21" class="edge">
<title>[root] google_project_service.iam_manager_api&#45;&gt;[root] google_project_service.iam_manager_api (expand)</title>
<path fill="none" stroke="black" d="M873.79,-359.87C872.09,-335.67 868.96,-291.21 866.93,-262.39"/>
<polygon fill="black" stroke="black" points="870.4,-261.92 866.21,-252.19 863.42,-262.41 870.4,-261.92"/>
</g>
<!-- [root] google_project_service.iam_manager_api (expand)&#45;&gt;[root] provider[&quot;registry.terraform.io/hashicorp/google&quot;] -->
<g id="edge20" class="edge">
<title>[root] google_project_service.iam_manager_api (expand)&#45;&gt;[root] provider[&quot;registry.terraform.io/hashicorp/google&quot;]</title>
<path fill="none" stroke="black" d="M865,-215.87C865,-191.67 865,-147.21 865,-118.39"/>
<polygon fill="black" stroke="black" points="868.5,-118.19 865,-108.19 861.5,-118.19 868.5,-118.19"/>
</g>
<!-- [root] google_project_service.serviceusage_api (expand) -->
<g id="node22" class="node">
<title>[root] google_project_service.serviceusage_api (expand)</title>
<polygon fill="none" stroke="black" points="1188.5,-180 949.5,-180 949.5,-144 1188.5,-144 1188.5,-180"/>
<text text-anchor="middle" x="1069" y="-158.3" font-family="Times,serif" font-size="14.00">google_project_service.serviceusage_api</text>
</g>
<!-- [root] google_project_service.serviceusage_api&#45;&gt;[root] google_project_service.serviceusage_api (expand) -->
<g id="edge23" class="edge">
<title>[root] google_project_service.serviceusage_api&#45;&gt;[root] google_project_service.serviceusage_api (expand)</title>
<path fill="none" stroke="black" d="M1111.16,-215.7C1104.51,-207.39 1096.42,-197.28 1089.11,-188.14"/>
<polygon fill="black" stroke="black" points="1091.66,-185.73 1082.68,-180.1 1086.2,-190.1 1091.66,-185.73"/>
</g>
<!-- [root] google_project_service.serviceusage_api (expand)&#45;&gt;[root] provider[&quot;registry.terraform.io/hashicorp/google&quot;] -->
<g id="edge22" class="edge">
<title>[root] google_project_service.serviceusage_api (expand)&#45;&gt;[root] provider[&quot;registry.terraform.io/hashicorp/google&quot;]</title>
<path fill="none" stroke="black" d="M1019.36,-143.97C988.04,-133.22 947.69,-119.37 916.1,-108.53"/>
<polygon fill="black" stroke="black" points="917.19,-105.21 906.6,-105.27 914.92,-111.83 917.19,-105.21"/>
</g>
<!-- [root] google_project_service.storage_api -->
<g id="node23" class="node">
<title>[root] google_project_service.storage_api</title>
<polygon fill="none" stroke="black" points="1471.5,-252 1262.5,-252 1262.5,-216 1471.5,-216 1471.5,-252"/>
<text text-anchor="middle" x="1367" y="-230.3" font-family="Times,serif" font-size="14.00">google_project_service.storage_api</text>
</g>
<!-- [root] google_project_service.storage_api (expand) -->
<g id="node24" class="node">
<title>[root] google_project_service.storage_api (expand)</title>
<polygon fill="none" stroke="black" points="1443.5,-180 1234.5,-180 1234.5,-144 1443.5,-144 1443.5,-180"/>
<text text-anchor="middle" x="1339" y="-158.3" font-family="Times,serif" font-size="14.00">google_project_service.storage_api</text>
</g>
<!-- [root] google_project_service.storage_api&#45;&gt;[root] google_project_service.storage_api (expand) -->
<g id="edge25" class="edge">
<title>[root] google_project_service.storage_api&#45;&gt;[root] google_project_service.storage_api (expand)</title>
<path fill="none" stroke="black" d="M1360.08,-215.7C1356.93,-207.81 1353.12,-198.3 1349.62,-189.55"/>
<polygon fill="black" stroke="black" points="1352.81,-188.09 1345.84,-180.1 1346.31,-190.69 1352.81,-188.09"/>
</g>
<!-- [root] google_project_service.storage_api (expand)&#45;&gt;[root] provider[&quot;registry.terraform.io/hashicorp/google&quot;] -->
<g id="edge24" class="edge">
<title>[root] google_project_service.storage_api (expand)&#45;&gt;[root] provider[&quot;registry.terraform.io/hashicorp/google&quot;]</title>
<path fill="none" stroke="black" d="M1234.39,-145.55C1150.47,-133.16 1033.93,-115.95 954.33,-104.19"/>
<polygon fill="black" stroke="black" points="954.73,-100.71 944.33,-102.72 953.71,-107.64 954.73,-100.71"/>
</g>
<!-- [root] google_storage_bucket.gcs_bucket -->
<g id="node25" class="node">
<title>[root] google_storage_bucket.gcs_bucket</title>
<polygon fill="none" stroke="black" points="1459,-396 1253,-396 1253,-360 1459,-360 1459,-396"/>
<text text-anchor="middle" x="1356" y="-374.3" font-family="Times,serif" font-size="14.00">google_storage_bucket.gcs_bucket</text>
</g>
<!-- [root] google_storage_bucket.gcs_bucket (expand) -->
<g id="node26" class="node">
<title>[root] google_storage_bucket.gcs_bucket (expand)</title>
<polygon fill="none" stroke="black" points="1470,-324 1264,-324 1264,-288 1470,-288 1470,-324"/>
<text text-anchor="middle" x="1367" y="-302.3" font-family="Times,serif" font-size="14.00">google_storage_bucket.gcs_bucket</text>
</g>
<!-- [root] google_storage_bucket.gcs_bucket&#45;&gt;[root] google_storage_bucket.gcs_bucket (expand) -->
<g id="edge28" class="edge">
<title>[root] google_storage_bucket.gcs_bucket&#45;&gt;[root] google_storage_bucket.gcs_bucket (expand)</title>
<path fill="none" stroke="black" d="M1358.72,-359.7C1359.93,-351.98 1361.39,-342.71 1362.74,-334.11"/>
<polygon fill="black" stroke="black" points="1366.22,-334.53 1364.31,-324.1 1359.3,-333.44 1366.22,-334.53"/>
</g>
<!-- [root] google_storage_bucket.gcs_bucket (expand)&#45;&gt;[root] google_project_service.storage_api -->
<g id="edge26" class="edge">
<title>[root] google_storage_bucket.gcs_bucket (expand)&#45;&gt;[root] google_project_service.storage_api</title>
<path fill="none" stroke="black" d="M1367,-287.7C1367,-279.98 1367,-270.71 1367,-262.11"/>
<polygon fill="black" stroke="black" points="1370.5,-262.1 1367,-252.1 1363.5,-262.1 1370.5,-262.1"/>
</g>
<!-- [root] local.final_gcs_bucket_name (expand) -->
<g id="node40" class="node">
<title>[root] local.final_gcs_bucket_name (expand)</title>
<ellipse fill="none" stroke="black" cx="1660" cy="-234" rx="170.07" ry="18"/>
<text text-anchor="middle" x="1660" y="-230.3" font-family="Times,serif" font-size="14.00">[root] local.final_gcs_bucket_name (expand)</text>
</g>
<!-- [root] google_storage_bucket.gcs_bucket (expand)&#45;&gt;[root] local.final_gcs_bucket_name (expand) -->
<g id="edge27" class="edge">
<title>[root] google_storage_bucket.gcs_bucket (expand)&#45;&gt;[root] local.final_gcs_bucket_name (expand)</title>
<path fill="none" stroke="black" d="M1438.3,-287.97C1482.55,-277.39 1539.37,-263.82 1584.4,-253.06"/>
<polygon fill="black" stroke="black" points="1585.49,-256.4 1594.4,-250.67 1583.86,-249.59 1585.49,-256.4"/>
</g>
<!-- [root] google_storage_bucket_iam_member.vertex_legal_bucket_viewer -->
<g id="node27" class="node">
<title>[root] google_storage_bucket_iam_member.vertex_legal_bucket_viewer</title>
<polygon fill="none" stroke="black" points="1298,-540 920,-540 920,-504 1298,-504 1298,-540"/>
<text text-anchor="middle" x="1109" y="-518.3" font-family="Times,serif" font-size="14.00">google_storage_bucket_iam_member.vertex_legal_bucket_viewer</text>
</g>
<!-- [root] google_storage_bucket_iam_member.vertex_legal_bucket_viewer (expand) -->
<g id="node28" class="node">
<title>[root] google_storage_bucket_iam_member.vertex_legal_bucket_viewer (expand)</title>
<polygon fill="none" stroke="black" points="1298,-468 920,-468 920,-432 1298,-432 1298,-468"/>
<text text-anchor="middle" x="1109" y="-446.3" font-family="Times,serif" font-size="14.00">google_storage_bucket_iam_member.vertex_legal_bucket_viewer</text>
</g>
<!-- [root] google_storage_bucket_iam_member.vertex_legal_bucket_viewer&#45;&gt;[root] google_storage_bucket_iam_member.vertex_legal_bucket_viewer (expand) -->
<g id="edge33" class="edge">
<title>[root] google_storage_bucket_iam_member.vertex_legal_bucket_viewer&#45;&gt;[root] google_storage_bucket_iam_member.vertex_legal_bucket_viewer (expand)</title>
<path fill="none" stroke="black" d="M1109,-503.7C1109,-495.98 1109,-486.71 1109,-478.11"/>
<polygon fill="black" stroke="black" points="1112.5,-478.1 1109,-468.1 1105.5,-478.1 1112.5,-478.1"/>
</g>
<!-- [root] google_storage_bucket_iam_member.vertex_legal_bucket_viewer (expand)&#45;&gt;[root] data.google_project.main_project -->
<g id="edge29" class="edge">
<title>[root] google_storage_bucket_iam_member.vertex_legal_bucket_viewer (expand)&#45;&gt;[root] data.google_project.main_project</title>
<path fill="none" stroke="black" d="M1110.98,-431.7C1111.86,-423.98 1112.92,-414.71 1113.9,-406.11"/>
<polygon fill="black" stroke="black" points="1117.39,-406.44 1115.05,-396.1 1110.43,-405.64 1117.39,-406.44"/>
</g>
<!-- [root] google_storage_bucket_iam_member.vertex_legal_bucket_viewer (expand)&#45;&gt;[root] google_project_service.aiplatform_api -->
<g id="edge30" class="edge">
<title>[root] google_storage_bucket_iam_member.vertex_legal_bucket_viewer (expand)&#45;&gt;[root] google_project_service.aiplatform_api</title>
<path fill="none" stroke="black" d="M969.07,-431.97C874.07,-420.4 749.57,-405.24 658.11,-394.11"/>
<polygon fill="black" stroke="black" points="658.31,-390.61 647.96,-392.87 657.47,-397.56 658.31,-390.61"/>
</g>
<!-- [root] google_storage_bucket_iam_member.vertex_legal_bucket_viewer (expand)&#45;&gt;[root] google_project_service.iam_manager_api -->
<g id="edge31" class="edge">
<title>[root] google_storage_bucket_iam_member.vertex_legal_bucket_viewer (expand)&#45;&gt;[root] google_project_service.iam_manager_api</title>
<path fill="none" stroke="black" d="M1052.06,-431.97C1018.79,-422.01 976.64,-409.41 941.81,-398.99"/>
<polygon fill="black" stroke="black" points="942.78,-395.62 932.2,-396.11 940.78,-402.33 942.78,-395.62"/>
</g>
<!-- [root] google_storage_bucket_iam_member.vertex_legal_bucket_viewer (expand)&#45;&gt;[root] google_storage_bucket.gcs_bucket -->
<g id="edge32" class="edge">
<title>[root] google_storage_bucket_iam_member.vertex_legal_bucket_viewer (expand)&#45;&gt;[root] google_storage_bucket.gcs_bucket</title>
<path fill="none" stroke="black" d="M1169.11,-431.97C1204.37,-421.97 1249.09,-409.3 1285.94,-398.85"/>
<polygon fill="black" stroke="black" points="1286.96,-402.2 1295.62,-396.11 1285.05,-395.47 1286.96,-402.2"/>
</g>
<!-- [root] local_file.templated_files (expand) -->
<g id="node29" class="node">
<title>[root] local_file.templated_files (expand)</title>
<polygon fill="none" stroke="black" points="1920.5,-468 1765.5,-468 1765.5,-432 1920.5,-432 1920.5,-468"/>
<text text-anchor="middle" x="1843" y="-446.3" font-family="Times,serif" font-size="14.00">local_file.templated_files</text>
</g>
<!-- [root] null_resource.create_scripts_dir_if_missing -->
<g id="node31" class="node">
<title>[root] null_resource.create_scripts_dir_if_missing</title>
<polygon fill="none" stroke="black" points="2391,-396 2137,-396 2137,-360 2391,-360 2391,-396"/>
<text text-anchor="middle" x="2264" y="-374.3" font-family="Times,serif" font-size="14.00">null_resource.create_scripts_dir_if_missing</text>
</g>
<!-- [root] local_file.templated_files (expand)&#45;&gt;[root] null_resource.create_scripts_dir_if_missing -->
<g id="edge40" class="edge">
<title>[root] local_file.templated_files (expand)&#45;&gt;[root] null_resource.create_scripts_dir_if_missing</title>
<path fill="none" stroke="black" d="M1920.71,-436.08C1985.49,-425.31 2078.64,-409.82 2151.57,-397.69"/>
<polygon fill="black" stroke="black" points="2152.43,-401.1 2161.72,-396.01 2151.28,-394.19 2152.43,-401.1"/>
</g>
<!-- [root] provider[&quot;registry.terraform.io/hashicorp/local&quot;] -->
<g id="node34" class="node">
<title>[root] provider[&quot;registry.terraform.io/hashicorp/local&quot;]</title>
<polygon fill="none" stroke="black" points="1862,-396 1604.77,-378 1862,-360 2119.23,-378 1862,-396"/>
<text text-anchor="middle" x="1862" y="-374.3" font-family="Times,serif" font-size="14.00">provider[&quot;registry.terraform.io/hashicorp/local&quot;]</text>
</g>
<!-- [root] local_file.templated_files (expand)&#45;&gt;[root] provider[&quot;registry.terraform.io/hashicorp/local&quot;] -->
<g id="edge41" class="edge">
<title>[root] local_file.templated_files (expand)&#45;&gt;[root] provider[&quot;registry.terraform.io/hashicorp/local&quot;]</title>
<path fill="none" stroke="black" d="M1847.7,-431.7C1849.81,-423.9 1852.36,-414.51 1854.72,-405.83"/>
<polygon fill="black" stroke="black" points="1858.12,-406.67 1857.36,-396.1 1851.36,-404.84 1858.12,-406.67"/>
</g>
<!-- [root] local.file_templates (expand) -->
<g id="node41" class="node">
<title>[root] local.file_templates (expand)</title>
<ellipse fill="none" stroke="black" cx="1759" cy="-306" rx="136.48" ry="18"/>
<text text-anchor="middle" x="1759" y="-302.3" font-family="Times,serif" font-size="14.00">[root] local.file_templates (expand)</text>
</g>
<!-- [root] local_file.templated_files (expand)&#45;&gt;[root] local.file_templates (expand) -->
<g id="edge39" class="edge">
<title>[root] local_file.templated_files (expand)&#45;&gt;[root] local.file_templates (expand)</title>
<path fill="none" stroke="black" d="M1765.46,-442.84C1701.2,-435.93 1617.09,-422.09 1596,-396 1567.48,-360.71 1619.58,-337.32 1672.28,-323.42"/>
<polygon fill="black" stroke="black" points="1673.27,-326.77 1682.11,-320.93 1671.56,-319.99 1673.27,-326.77"/>
</g>
<!-- [root] local_file.templated_files[&quot;base_env.sh&quot;] -->
<g id="node30" class="node">
<title>[root] local_file.templated_files[&quot;base_env.sh&quot;]</title>
<polygon fill="none" stroke="black" points="1902.5,-540 1747.5,-540 1747.5,-504 1902.5,-504 1902.5,-540"/>
<text text-anchor="middle" x="1825" y="-518.3" font-family="Times,serif" font-size="14.00">local_file.templated_files</text>
</g>
<!-- [root] local_file.templated_files[&quot;base_env.sh&quot;]&#45;&gt;[root] local_file.templated_files (expand) -->
<g id="edge42" class="edge">
<title>[root] local_file.templated_files[&quot;base_env.sh&quot;]&#45;&gt;[root] local_file.templated_files (expand)</title>
<path fill="none" stroke="black" d="M1829.45,-503.7C1831.45,-495.9 1833.87,-486.51 1836.1,-477.83"/>
<polygon fill="black" stroke="black" points="1839.5,-478.66 1838.6,-468.1 1832.72,-476.92 1839.5,-478.66"/>
</g>
<!-- [root] null_resource.create_scripts_dir_if_missing (expand) -->
<g id="node32" class="node">
<title>[root] null_resource.create_scripts_dir_if_missing (expand)</title>
<polygon fill="none" stroke="black" points="2391,-324 2137,-324 2137,-288 2391,-288 2391,-324"/>
<text text-anchor="middle" x="2264" y="-302.3" font-family="Times,serif" font-size="14.00">null_resource.create_scripts_dir_if_missing</text>
</g>
<!-- [root] null_resource.create_scripts_dir_if_missing&#45;&gt;[root] null_resource.create_scripts_dir_if_missing (expand) -->
<g id="edge45" class="edge">
<title>[root] null_resource.create_scripts_dir_if_missing&#45;&gt;[root] null_resource.create_scripts_dir_if_missing (expand)</title>
<path fill="none" stroke="black" d="M2264,-359.7C2264,-351.98 2264,-342.71 2264,-334.11"/>
<polygon fill="black" stroke="black" points="2267.5,-334.1 2264,-324.1 2260.5,-334.1 2267.5,-334.1"/>
</g>
<!-- [root] provider[&quot;registry.terraform.io/hashicorp/null&quot;] -->
<g id="node35" class="node">
<title>[root] provider[&quot;registry.terraform.io/hashicorp/null&quot;]</title>
<polygon fill="none" stroke="black" points="2403,-252 2150.46,-234 2403,-216 2655.54,-234 2403,-252"/>
<text text-anchor="middle" x="2403" y="-230.3" font-family="Times,serif" font-size="14.00">provider[&quot;registry.terraform.io/hashicorp/null&quot;]</text>
</g>
<!-- [root] null_resource.create_scripts_dir_if_missing (expand)&#45;&gt;[root] provider[&quot;registry.terraform.io/hashicorp/null&quot;] -->
<g id="edge44" class="edge">
<title>[root] null_resource.create_scripts_dir_if_missing (expand)&#45;&gt;[root] provider[&quot;registry.terraform.io/hashicorp/null&quot;]</title>
<path fill="none" stroke="black" d="M2298,-287.88C2317.94,-277.84 2343.2,-265.12 2363.94,-254.67"/>
<polygon fill="black" stroke="black" points="2365.77,-257.67 2373.12,-250.05 2362.62,-251.42 2365.77,-257.67"/>
</g>
<!-- [root] local.scripts_dir (expand) -->
<g id="node42" class="node">
<title>[root] local.scripts_dir (expand)</title>
<ellipse fill="none" stroke="black" cx="2009" cy="-234" rx="123.48" ry="18"/>
<text text-anchor="middle" x="2009" y="-230.3" font-family="Times,serif" font-size="14.00">[root] local.scripts_dir (expand)</text>
</g>
<!-- [root] null_resource.create_scripts_dir_if_missing (expand)&#45;&gt;[root] local.scripts_dir (expand) -->
<g id="edge43" class="edge">
<title>[root] null_resource.create_scripts_dir_if_missing (expand)&#45;&gt;[root] local.scripts_dir (expand)</title>
<path fill="none" stroke="black" d="M2201.95,-287.97C2163.21,-277.33 2113.42,-263.67 2074.13,-252.88"/>
<polygon fill="black" stroke="black" points="2074.94,-249.47 2064.37,-250.2 2073.09,-256.22 2074.94,-249.47"/>
</g>
<!-- [root] var.project_id -->
<g id="node38" class="node">
<title>[root] var.project_id</title>
<polygon fill="none" stroke="black" points="1231,-36 1145,-36 1145,0 1237,0 1237,-30 1231,-36"/>
<polyline fill="none" stroke="black" points="1231,-36 1231,-30 "/>
<polyline fill="none" stroke="black" points="1237,-30 1231,-30 "/>
<text text-anchor="middle" x="1191" y="-14.3" font-family="Times,serif" font-size="14.00">var.project_id</text>
</g>
<!-- [root] provider[&quot;registry.terraform.io/hashicorp/google&quot;]&#45;&gt;[root] var.project_id -->
<g id="edge51" class="edge">
<title>[root] provider[&quot;registry.terraform.io/hashicorp/google&quot;]&#45;&gt;[root] var.project_id</title>
<path fill="none" stroke="black" d="M925.55,-76C985.61,-63.1 1076.86,-43.51 1135.19,-30.98"/>
<polygon fill="black" stroke="black" points="1135.93,-34.4 1144.98,-28.88 1134.46,-27.56 1135.93,-34.4"/>
</g>
<!-- [root] var.region -->
<g id="node39" class="node">
<title>[root] var.region</title>
<polygon fill="none" stroke="black" points="1603.5,-36 1538.5,-36 1538.5,0 1609.5,0 1609.5,-30 1603.5,-36"/>
<polyline fill="none" stroke="black" points="1603.5,-36 1603.5,-30 "/>
<polyline fill="none" stroke="black" points="1609.5,-30 1603.5,-30 "/>
<text text-anchor="middle" x="1574" y="-14.3" font-family="Times,serif" font-size="14.00">var.region</text>
</g>
<!-- [root] provider[&quot;registry.terraform.io/hashicorp/google&quot;]&#45;&gt;[root] var.region -->
<g id="edge52" class="edge">
<title>[root] provider[&quot;registry.terraform.io/hashicorp/google&quot;]&#45;&gt;[root] var.region</title>
<path fill="none" stroke="black" d="M967.34,-78.9C1123.71,-63.46 1415.81,-34.62 1528.25,-23.52"/>
<polygon fill="black" stroke="black" points="1528.64,-27 1538.25,-22.53 1527.95,-20.03 1528.64,-27"/>
</g>
<!-- [root] var.gcs_bucket_name -->
<g id="node37" class="node">
<title>[root] var.gcs_bucket_name</title>
<polygon fill="none" stroke="black" points="1721,-180 1593,-180 1593,-144 1727,-144 1727,-174 1721,-180"/>
<polyline fill="none" stroke="black" points="1721,-180 1721,-174 "/>
<polyline fill="none" stroke="black" points="1727,-174 1721,-174 "/>
<text text-anchor="middle" x="1660" y="-158.3" font-family="Times,serif" font-size="14.00">var.gcs_bucket_name</text>
</g>
<!-- [root] local.final_gcs_bucket_name (expand)&#45;&gt;[root] var.gcs_bucket_name -->
<g id="edge37" class="edge">
<title>[root] local.final_gcs_bucket_name (expand)&#45;&gt;[root] var.gcs_bucket_name</title>
<path fill="none" stroke="black" d="M1660,-215.7C1660,-207.98 1660,-198.71 1660,-190.11"/>
<polygon fill="black" stroke="black" points="1663.5,-190.1 1660,-180.1 1656.5,-190.1 1663.5,-190.1"/>
</g>
<!-- [root] local.final_gcs_bucket_name (expand)&#45;&gt;[root] var.project_id -->
<g id="edge38" class="edge">
<title>[root] local.final_gcs_bucket_name (expand)&#45;&gt;[root] var.project_id</title>
<path fill="none" stroke="black" d="M1623.59,-216.39C1539.32,-177.93 1330.94,-82.85 1237.57,-40.25"/>
<polygon fill="black" stroke="black" points="1238.91,-37.01 1228.36,-36.05 1236.01,-43.38 1238.91,-37.01"/>
</g>
<!-- [root] local.file_templates (expand)&#45;&gt;[root] var.region -->
<g id="edge36" class="edge">
<title>[root] local.file_templates (expand)&#45;&gt;[root] var.region</title>
<path fill="none" stroke="black" d="M1798.92,-288.7C1814.34,-280.2 1830.33,-268.15 1839,-252 1846.57,-237.9 1846.19,-230.3 1839,-216 1792.96,-124.41 1681.94,-64.65 1619.18,-36.95"/>
<polygon fill="black" stroke="black" points="1620.48,-33.69 1609.91,-32.93 1617.7,-40.12 1620.48,-33.69"/>
</g>
<!-- [root] local.file_templates (expand)&#45;&gt;[root] local.final_gcs_bucket_name (expand) -->
<g id="edge34" class="edge">
<title>[root] local.file_templates (expand)&#45;&gt;[root] local.final_gcs_bucket_name (expand)</title>
<path fill="none" stroke="black" d="M1735.29,-288.23C1722.4,-279.12 1706.28,-267.72 1692.27,-257.82"/>
<polygon fill="black" stroke="black" points="1694.05,-254.79 1683.86,-251.87 1690.01,-260.5 1694.05,-254.79"/>
</g>
<!-- [root] local.file_templates (expand)&#45;&gt;[root] local.scripts_dir (expand) -->
<g id="edge35" class="edge">
<title>[root] local.file_templates (expand)&#45;&gt;[root] local.scripts_dir (expand)</title>
<path fill="none" stroke="black" d="M1814.48,-289.46C1853.02,-278.67 1904.49,-264.26 1944.8,-252.98"/>
<polygon fill="black" stroke="black" points="1945.85,-256.32 1954.53,-250.25 1943.96,-249.58 1945.85,-256.32"/>
</g>
<!-- [root] provider[&quot;registry.terraform.io/hashicorp/google&quot;] (close) -->
<g id="node43" class="node">
<title>[root] provider[&quot;registry.terraform.io/hashicorp/google&quot;] (close)</title>
<ellipse fill="none" stroke="black" cx="690" cy="-594" rx="237.46" ry="18"/>
<text text-anchor="middle" x="690" y="-590.3" font-family="Times,serif" font-size="14.00">[root] provider[&quot;registry.terraform.io/hashicorp/google&quot;] (close)</text>
</g>
<!-- [root] provider[&quot;registry.terraform.io/hashicorp/google&quot;] (close)&#45;&gt;[root] google_bigquery_job.seed_catalog -->
<g id="edge46" class="edge">
<title>[root] provider[&quot;registry.terraform.io/hashicorp/google&quot;] (close)&#45;&gt;[root] google_bigquery_job.seed_catalog</title>
<path fill="none" stroke="black" d="M556.43,-579.09C462.51,-569.02 333.95,-554.65 221,-540 220.07,-539.88 219.14,-539.76 218.21,-539.64"/>
<polygon fill="black" stroke="black" points="218.45,-536.14 208.07,-538.29 217.52,-543.08 218.45,-536.14"/>
</g>
<!-- [root] provider[&quot;registry.terraform.io/hashicorp/google&quot;] (close)&#45;&gt;[root] google_bigquery_job.seed_inventory -->
<g id="edge47" class="edge">
<title>[root] provider[&quot;registry.terraform.io/hashicorp/google&quot;] (close)&#45;&gt;[root] google_bigquery_job.seed_inventory</title>
<path fill="none" stroke="black" d="M609.91,-577.03C557.72,-566.62 489.36,-552.99 434.36,-542.02"/>
<polygon fill="black" stroke="black" points="434.75,-538.53 424.26,-540 433.38,-545.39 434.75,-538.53"/>
</g>
<!-- [root] provider[&quot;registry.terraform.io/hashicorp/google&quot;] (close)&#45;&gt;[root] google_project_service.bigquery_api -->
<g id="edge48" class="edge">
<title>[root] provider[&quot;registry.terraform.io/hashicorp/google&quot;] (close)&#45;&gt;[root] google_project_service.bigquery_api</title>
<path fill="none" stroke="black" d="M662.65,-576.05C647.77,-566.84 629.17,-555.32 613.11,-545.37"/>
<polygon fill="black" stroke="black" points="614.84,-542.32 604.49,-540.03 611.15,-548.27 614.84,-542.32"/>
</g>
<!-- [root] provider[&quot;registry.terraform.io/hashicorp/google&quot;] (close)&#45;&gt;[root] google_project_service.drive_api -->
<g id="edge49" class="edge">
<title>[root] provider[&quot;registry.terraform.io/hashicorp/google&quot;] (close)&#45;&gt;[root] google_project_service.drive_api</title>
<path fill="none" stroke="black" d="M717.35,-576.05C732.23,-566.84 750.83,-555.32 766.89,-545.37"/>
<polygon fill="black" stroke="black" points="768.85,-548.27 775.51,-540.03 765.16,-542.32 768.85,-548.27"/>
</g>
<!-- [root] provider[&quot;registry.terraform.io/hashicorp/google&quot;] (close)&#45;&gt;[root] google_storage_bucket_iam_member.vertex_legal_bucket_viewer -->
<g id="edge50" class="edge">
<title>[root] provider[&quot;registry.terraform.io/hashicorp/google&quot;] (close)&#45;&gt;[root] google_storage_bucket_iam_member.vertex_legal_bucket_viewer</title>
<path fill="none" stroke="black" d="M783.25,-577.42C846.44,-566.86 930.28,-552.86 997.08,-541.7"/>
<polygon fill="black" stroke="black" points="997.94,-545.1 1007.22,-540 996.78,-538.2 997.94,-545.1"/>
</g>
<!-- [root] provider[&quot;registry.terraform.io/hashicorp/local&quot;] (close) -->
<g id="node44" class="node">
<title>[root] provider[&quot;registry.terraform.io/hashicorp/local&quot;] (close)</title>
<ellipse fill="none" stroke="black" cx="1788" cy="-594" rx="230.96" ry="18"/>
<text text-anchor="middle" x="1788" y="-590.3" font-family="Times,serif" font-size="14.00">[root] provider[&quot;registry.terraform.io/hashicorp/local&quot;] (close)</text>
</g>
<!-- [root] provider[&quot;registry.terraform.io/hashicorp/local&quot;] (close)&#45;&gt;[root] local_file.templated_files[&quot;base_env.sh&quot;] -->
<g id="edge53" class="edge">
<title>[root] provider[&quot;registry.terraform.io/hashicorp/local&quot;] (close)&#45;&gt;[root] local_file.templated_files[&quot;base_env.sh&quot;]</title>
<path fill="none" stroke="black" d="M1797.15,-575.7C1801.4,-567.64 1806.56,-557.89 1811.27,-548.98"/>
<polygon fill="black" stroke="black" points="1814.38,-550.58 1815.96,-540.1 1808.19,-547.31 1814.38,-550.58"/>
</g>
<!-- [root] provider[&quot;registry.terraform.io/hashicorp/null&quot;] (close) -->
<g id="node45" class="node">
<title>[root] provider[&quot;registry.terraform.io/hashicorp/null&quot;] (close)</title>
<ellipse fill="none" stroke="black" cx="2264" cy="-594" rx="227.46" ry="18"/>
<text text-anchor="middle" x="2264" y="-590.3" font-family="Times,serif" font-size="14.00">[root] provider[&quot;registry.terraform.io/hashicorp/null&quot;] (close)</text>
</g>
<!-- [root] provider[&quot;registry.terraform.io/hashicorp/null&quot;] (close)&#45;&gt;[root] null_resource.create_scripts_dir_if_missing -->
<g id="edge54" class="edge">
<title>[root] provider[&quot;registry.terraform.io/hashicorp/null&quot;] (close)&#45;&gt;[root] null_resource.create_scripts_dir_if_missing</title>
<path fill="none" stroke="black" d="M2264,-575.85C2264,-538.83 2264,-451.18 2264,-406.39"/>
<polygon fill="black" stroke="black" points="2267.5,-406.23 2264,-396.23 2260.5,-406.23 2267.5,-406.23"/>
</g>
<!-- [root] root -->
<g id="node46" class="node">
<title>[root] root</title>
<ellipse fill="none" stroke="black" cx="1788" cy="-666" rx="47.39" ry="18"/>
<text text-anchor="middle" x="1788" y="-662.3" font-family="Times,serif" font-size="14.00">[root] root</text>
</g>
<!-- [root] root&#45;&gt;[root] provider[&quot;registry.terraform.io/hashicorp/google&quot;] (close) -->
<g id="edge55" class="edge">
<title>[root] root&#45;&gt;[root] provider[&quot;registry.terraform.io/hashicorp/google&quot;] (close)</title>
<path fill="none" stroke="black" d="M1741.52,-662.04C1594.8,-652.68 1135.83,-623.42 875.35,-606.82"/>
<polygon fill="black" stroke="black" points="875.22,-603.3 865.01,-606.16 874.77,-610.29 875.22,-603.3"/>
</g>
<!-- [root] root&#45;&gt;[root] provider[&quot;registry.terraform.io/hashicorp/local&quot;] (close) -->
<g id="edge56" class="edge">
<title>[root] root&#45;&gt;[root] provider[&quot;registry.terraform.io/hashicorp/local&quot;] (close)</title>
<path fill="none" stroke="black" d="M1788,-647.7C1788,-639.98 1788,-630.71 1788,-622.11"/>
<polygon fill="black" stroke="black" points="1791.5,-622.1 1788,-612.1 1784.5,-622.1 1791.5,-622.1"/>
</g>
<!-- [root] root&#45;&gt;[root] provider[&quot;registry.terraform.io/hashicorp/null&quot;] (close) -->
<g id="edge57" class="edge">
<title>[root] root&#45;&gt;[root] provider[&quot;registry.terraform.io/hashicorp/null&quot;] (close)</title>
<path fill="none" stroke="black" d="M1831.5,-658.6C1903.36,-648.04 2049.05,-626.61 2151.41,-611.56"/>
<polygon fill="black" stroke="black" points="2152.1,-614.99 2161.49,-610.08 2151.09,-608.07 2152.1,-614.99"/>
</g>
</g>
</svg>
