<?xml version="1.0" encoding="UTF-8" standalone="no"?>
<!DOCTYPE svg PUBLIC "-//W3C//DTD SVG 1.1//EN"
 "http://www.w3.org/Graphics/SVG/1.1/DTD/svg11.dtd">
<!-- Generated by graphviz version 2.42.4 (0)
 -->
<!-- Pages: 1 -->
<svg width="670pt" height="548pt"
 viewBox="0.00 0.00 670.00 548.00" xmlns="http://www.w3.org/2000/svg" xmlns:xlink="http://www.w3.org/1999/xlink">
<g id="graph0" class="graph" transform="scale(1 1) rotate(0) translate(4 544)">
<polygon fill="white" stroke="transparent" points="-4,4 -4,-544 666,-544 666,4 -4,4"/>
<!-- [root] google_bigquery_dataset.dataset -->
<g id="node1" class="node">
<title>[root] google_bigquery_dataset.dataset</title>
<polygon fill="none" stroke="black" points="485,-252 291,-252 291,-216 485,-216 485,-252"/>
<text text-anchor="middle" x="388" y="-230.3" font-family="Times,serif" font-size="14.00">google_bigquery_dataset.dataset</text>
</g>
<!-- [root] google_bigquery_dataset.dataset (expand) -->
<g id="node2" class="node">
<title>[root] google_bigquery_dataset.dataset (expand)</title>
<polygon fill="none" stroke="black" points="589,-180 395,-180 395,-144 589,-144 589,-180"/>
<text text-anchor="middle" x="492" y="-158.3" font-family="Times,serif" font-size="14.00">google_bigquery_dataset.dataset</text>
</g>
<!-- [root] google_bigquery_dataset.dataset&#45;&gt;[root] google_bigquery_dataset.dataset (expand) -->
<g id="edge3" class="edge">
<title>[root] google_bigquery_dataset.dataset&#45;&gt;[root] google_bigquery_dataset.dataset (expand)</title>
<path fill="none" stroke="black" d="M413.44,-215.88C426.79,-206.89 443.32,-195.76 457.78,-186.03"/>
<polygon fill="black" stroke="black" points="460.12,-188.68 466.46,-180.19 456.21,-182.87 460.12,-188.68"/>
</g>
<!-- [root] google_bigquery_table.catalog (destroy) -->
<g id="node4" class="node">
<title>[root] google_bigquery_table.catalog (destroy)</title>
<polygon fill="none" stroke="black" points="377,-180 193,-180 193,-144 377,-144 377,-180"/>
<text text-anchor="middle" x="285" y="-158.3" font-family="Times,serif" font-size="14.00">google_bigquery_table.catalog</text>
</g>
<!-- [root] google_bigquery_dataset.dataset&#45;&gt;[root] google_bigquery_table.catalog (destroy) -->
<g id="edge4" class="edge">
<title>[root] google_bigquery_dataset.dataset&#45;&gt;[root] google_bigquery_table.catalog (destroy)</title>
<path fill="none" stroke="black" d="M362.8,-215.88C349.59,-206.89 333.21,-195.76 318.89,-186.03"/>
<polygon fill="black" stroke="black" points="320.53,-182.92 310.29,-180.19 316.6,-188.71 320.53,-182.92"/>
</g>
<!-- [root] provider[&quot;registry.terraform.io/hashicorp/google&quot;] -->
<g id="node8" class="node">
<title>[root] provider[&quot;registry.terraform.io/hashicorp/google&quot;]</title>
<polygon fill="none" stroke="black" points="285,-108 18.39,-90 285,-72 551.61,-90 285,-108"/>
<text text-anchor="middle" x="285" y="-86.3" font-family="Times,serif" font-size="14.00">provider[&quot;registry.terraform.io/hashicorp/google&quot;]</text>
</g>
<!-- [root] google_bigquery_dataset.dataset (expand)&#45;&gt;[root] provider[&quot;registry.terraform.io/hashicorp/google&quot;] -->
<g id="edge1" class="edge">
<title>[root] google_bigquery_dataset.dataset (expand)&#45;&gt;[root] provider[&quot;registry.terraform.io/hashicorp/google&quot;]</title>
<path fill="none" stroke="black" d="M441.63,-143.97C409.85,-133.22 368.91,-119.37 336.85,-108.53"/>
<polygon fill="black" stroke="black" points="337.8,-105.16 327.21,-105.27 335.56,-111.79 337.8,-105.16"/>
</g>
<!-- [root] var.dataset_id -->
<g id="node9" class="node">
<title>[root] var.dataset_id</title>
<polygon fill="none" stroke="black" points="656,-108 570,-108 570,-72 662,-72 662,-102 656,-108"/>
<polyline fill="none" stroke="black" points="656,-108 656,-102 "/>
<polyline fill="none" stroke="black" points="662,-102 656,-102 "/>
<text text-anchor="middle" x="616" y="-86.3" font-family="Times,serif" font-size="14.00">var.dataset_id</text>
</g>
<!-- [root] google_bigquery_dataset.dataset (expand)&#45;&gt;[root] var.dataset_id -->
<g id="edge2" class="edge">
<title>[root] google_bigquery_dataset.dataset (expand)&#45;&gt;[root] var.dataset_id</title>
<path fill="none" stroke="black" d="M522.33,-143.88C538.7,-134.64 559.08,-123.13 576.65,-113.21"/>
<polygon fill="black" stroke="black" points="578.56,-116.15 585.55,-108.19 575.12,-110.06 578.56,-116.15"/>
</g>
<!-- [root] google_bigquery_table.catalog -->
<g id="node3" class="node">
<title>[root] google_bigquery_table.catalog</title>
<polygon fill="none" stroke="black" points="376,-396 192,-396 192,-360 376,-360 376,-396"/>
<text text-anchor="middle" x="284" y="-374.3" font-family="Times,serif" font-size="14.00">google_bigquery_table.catalog</text>
</g>
<!-- [root] google_bigquery_table.catalog (expand) -->
<g id="node5" class="node">
<title>[root] google_bigquery_table.catalog (expand)</title>
<polygon fill="none" stroke="black" points="376,-324 192,-324 192,-288 376,-288 376,-324"/>
<text text-anchor="middle" x="284" y="-302.3" font-family="Times,serif" font-size="14.00">google_bigquery_table.catalog</text>
</g>
<!-- [root] google_bigquery_table.catalog&#45;&gt;[root] google_bigquery_table.catalog (expand) -->
<g id="edge7" class="edge">
<title>[root] google_bigquery_table.catalog&#45;&gt;[root] google_bigquery_table.catalog (expand)</title>
<path fill="none" stroke="black" d="M284,-359.7C284,-351.98 284,-342.71 284,-334.11"/>
<polygon fill="black" stroke="black" points="287.5,-334.1 284,-324.1 280.5,-334.1 287.5,-334.1"/>
</g>
<!-- [root] google_bigquery_table.catalog (destroy)&#45;&gt;[root] provider[&quot;registry.terraform.io/hashicorp/google&quot;] -->
<g id="edge5" class="edge">
<title>[root] google_bigquery_table.catalog (destroy)&#45;&gt;[root] provider[&quot;registry.terraform.io/hashicorp/google&quot;]</title>
<path fill="none" stroke="black" d="M285,-143.7C285,-135.98 285,-126.71 285,-118.11"/>
<polygon fill="black" stroke="black" points="288.5,-118.1 285,-108.1 281.5,-118.1 288.5,-118.1"/>
</g>
<!-- [root] google_bigquery_table.catalog (expand)&#45;&gt;[root] google_bigquery_dataset.dataset -->
<g id="edge6" class="edge">
<title>[root] google_bigquery_table.catalog (expand)&#45;&gt;[root] google_bigquery_dataset.dataset</title>
<path fill="none" stroke="black" d="M309.44,-287.88C322.79,-278.89 339.32,-267.76 353.78,-258.03"/>
<polygon fill="black" stroke="black" points="356.12,-260.68 362.46,-252.19 352.21,-254.87 356.12,-260.68"/>
</g>
<!-- [root] google_bigquery_table.inventory -->
<g id="node6" class="node">
<title>[root] google_bigquery_table.inventory</title>
<polygon fill="none" stroke="black" points="591.5,-396 394.5,-396 394.5,-360 591.5,-360 591.5,-396"/>
<text text-anchor="middle" x="493" y="-374.3" font-family="Times,serif" font-size="14.00">google_bigquery_table.inventory</text>
</g>
<!-- [root] google_bigquery_table.inventory (expand) -->
<g id="node7" class="node">
<title>[root] google_bigquery_table.inventory (expand)</title>
<polygon fill="none" stroke="black" points="591.5,-324 394.5,-324 394.5,-288 591.5,-288 591.5,-324"/>
<text text-anchor="middle" x="493" y="-302.3" font-family="Times,serif" font-size="14.00">google_bigquery_table.inventory</text>
</g>
<!-- [root] google_bigquery_table.inventory&#45;&gt;[root] google_bigquery_table.inventory (expand) -->
<g id="edge9" class="edge">
<title>[root] google_bigquery_table.inventory&#45;&gt;[root] google_bigquery_table.inventory (expand)</title>
<path fill="none" stroke="black" d="M493,-359.7C493,-351.98 493,-342.71 493,-334.11"/>
<polygon fill="black" stroke="black" points="496.5,-334.1 493,-324.1 489.5,-334.1 496.5,-334.1"/>
</g>
<!-- [root] google_bigquery_table.inventory (expand)&#45;&gt;[root] google_bigquery_dataset.dataset -->
<g id="edge8" class="edge">
<title>[root] google_bigquery_table.inventory (expand)&#45;&gt;[root] google_bigquery_dataset.dataset</title>
<path fill="none" stroke="black" d="M467.31,-287.88C453.71,-278.81 436.83,-267.55 422.14,-257.76"/>
<polygon fill="black" stroke="black" points="424.05,-254.82 413.78,-252.19 420.16,-260.65 424.05,-254.82"/>
</g>
<!-- [root] var.project_id -->
<g id="node11" class="node">
<title>[root] var.project_id</title>
<polygon fill="none" stroke="black" points="275,-36 189,-36 189,0 281,0 281,-30 275,-36"/>
<polyline fill="none" stroke="black" points="275,-36 275,-30 "/>
<polyline fill="none" stroke="black" points="281,-30 275,-30 "/>
<text text-anchor="middle" x="235" y="-14.3" font-family="Times,serif" font-size="14.00">var.project_id</text>
</g>
<!-- [root] provider[&quot;registry.terraform.io/hashicorp/google&quot;]&#45;&gt;[root] var.project_id -->
<g id="edge12" class="edge">
<title>[root] provider[&quot;registry.terraform.io/hashicorp/google&quot;]&#45;&gt;[root] var.project_id</title>
<path fill="none" stroke="black" d="M273.4,-72.76C267.4,-64.35 259.92,-53.89 253.17,-44.44"/>
<polygon fill="black" stroke="black" points="255.89,-42.23 247.23,-36.12 250.2,-46.3 255.89,-42.23"/>
</g>
<!-- [root] var.region -->
<g id="node12" class="node">
<title>[root] var.region</title>
<polygon fill="none" stroke="black" points="364.5,-36 299.5,-36 299.5,0 370.5,0 370.5,-30 364.5,-36"/>
<polyline fill="none" stroke="black" points="364.5,-36 364.5,-30 "/>
<polyline fill="none" stroke="black" points="370.5,-30 364.5,-30 "/>
<text text-anchor="middle" x="335" y="-14.3" font-family="Times,serif" font-size="14.00">var.region</text>
</g>
<!-- [root] provider[&quot;registry.terraform.io/hashicorp/google&quot;]&#45;&gt;[root] var.region -->
<g id="edge13" class="edge">
<title>[root] provider[&quot;registry.terraform.io/hashicorp/google&quot;]&#45;&gt;[root] var.region</title>
<path fill="none" stroke="black" d="M296.6,-72.76C302.6,-64.35 310.08,-53.89 316.83,-44.44"/>
<polygon fill="black" stroke="black" points="319.8,-46.3 322.77,-36.12 314.11,-42.23 319.8,-46.3"/>
</g>
<!-- [root] var.gcs_bucket_name -->
<g id="node10" class="node">
<title>[root] var.gcs_bucket_name</title>
<polygon fill="none" stroke="black" points="128,-468 0,-468 0,-432 134,-432 134,-462 128,-468"/>
<polyline fill="none" stroke="black" points="128,-468 128,-462 "/>
<polyline fill="none" stroke="black" points="134,-462 128,-462 "/>
<text text-anchor="middle" x="67" y="-446.3" font-family="Times,serif" font-size="14.00">var.gcs_bucket_name</text>
</g>
<!-- [root] provider[&quot;registry.terraform.io/hashicorp/google&quot;] (close) -->
<g id="node13" class="node">
<title>[root] provider[&quot;registry.terraform.io/hashicorp/google&quot;] (close)</title>
<ellipse fill="none" stroke="black" cx="389" cy="-450" rx="237.46" ry="18"/>
<text text-anchor="middle" x="389" y="-446.3" font-family="Times,serif" font-size="14.00">[root] provider[&quot;registry.terraform.io/hashicorp/google&quot;] (close)</text>
</g>
<!-- [root] provider[&quot;registry.terraform.io/hashicorp/google&quot;] (close)&#45;&gt;[root] google_bigquery_table.catalog -->
<g id="edge10" class="edge">
<title>[root] provider[&quot;registry.terraform.io/hashicorp/google&quot;] (close)&#45;&gt;[root] google_bigquery_table.catalog</title>
<path fill="none" stroke="black" d="M363.58,-432.05C349.88,-422.92 332.8,-411.53 317.97,-401.65"/>
<polygon fill="black" stroke="black" points="319.81,-398.67 309.55,-396.03 315.93,-404.49 319.81,-398.67"/>
</g>
<!-- [root] provider[&quot;registry.terraform.io/hashicorp/google&quot;] (close)&#45;&gt;[root] google_bigquery_table.inventory -->
<g id="edge11" class="edge">
<title>[root] provider[&quot;registry.terraform.io/hashicorp/google&quot;] (close)&#45;&gt;[root] google_bigquery_table.inventory</title>
<path fill="none" stroke="black" d="M414.18,-432.05C427.74,-422.92 444.67,-411.53 459.35,-401.65"/>
<polygon fill="black" stroke="black" points="461.35,-404.52 467.7,-396.03 457.45,-398.71 461.35,-404.52"/>
</g>
<!-- [root] root -->
<g id="node14" class="node">
<title>[root] root</title>
<ellipse fill="none" stroke="black" cx="228" cy="-522" rx="47.39" ry="18"/>
<text text-anchor="middle" x="228" y="-518.3" font-family="Times,serif" font-size="14.00">[root] root</text>
</g>
<!-- [root] root&#45;&gt;[root] var.gcs_bucket_name -->
<g id="edge15" class="edge">
<title>[root] root&#45;&gt;[root] var.gcs_bucket_name</title>
<path fill="none" stroke="black" d="M198.09,-508C174.91,-497.92 142.31,-483.74 115.42,-472.05"/>
<polygon fill="black" stroke="black" points="116.74,-468.81 106.17,-468.03 113.95,-475.23 116.74,-468.81"/>
</g>
<!-- [root] root&#45;&gt;[root] provider[&quot;registry.terraform.io/hashicorp/google&quot;] (close) -->
<g id="edge14" class="edge">
<title>[root] root&#45;&gt;[root] provider[&quot;registry.terraform.io/hashicorp/google&quot;] (close)</title>
<path fill="none" stroke="black" d="M257.91,-508C281.25,-497.85 314.15,-483.55 341.14,-471.81"/>
<polygon fill="black" stroke="black" points="342.65,-474.97 350.42,-467.77 339.86,-468.55 342.65,-474.97"/>
</g>
</g>
</svg>
